<?xml version="1.0" encoding="UTF-8"?>
<svg version="1.1" xmlns="http://www.w3.org/2000/svg" width="1000" height="1080">
<path d="M0 0 C330 0 660 0 1000 0 C1000 356.4 1000 712.8 1000 1080 C670 1080 340 1080 0 1080 C0 723.6 0 367.2 0 0 Z " fill="#000000" transform="translate(0,0)"/>
<path d="M0 0 C1.24269653 0.00616333 1.24269653 0.00616333 2.51049805 0.01245117 C3.43797852 0.01438477 4.36545898 0.01631836 5.32104492 0.01831055 C6.781875 0.03667969 6.781875 0.03667969 8.2722168 0.05541992 C9.66923828 0.05638672 9.66923828 0.05638672 11.09448242 0.05737305 C15.83383346 0.08656823 20.50120883 0.27517049 25.21777344 0.73803711 C35.18466649 1.52265093 45.17746617 1.42998311 55.16965103 1.47271538 C58.90171235 1.4892763 62.63367903 1.51251112 66.36569214 1.53761292 C76.96664862 1.60803032 87.56763512 1.66885221 98.16870117 1.71972656 C104.67410844 1.75102529 111.17940814 1.79267881 117.68471909 1.83992195 C120.16070329 1.85595575 122.63671442 1.86827092 125.11273575 1.87682915 C128.55941086 1.88893096 132.00580577 1.91305167 135.45239258 1.93994141 C136.99052864 1.94082512 136.99052864 1.94082512 138.55973816 1.94172668 C139.96394264 1.95630417 139.96394264 1.95630417 141.39651489 1.97117615 C142.21016573 1.97540809 143.02381657 1.97964003 143.86212349 1.98400021 C145.9597168 2.24291992 145.9597168 2.24291992 148.9597168 4.24291992 C149.1472168 7.36791992 149.1472168 7.36791992 148.9597168 10.24291992 C145.27943773 12.59003668 141.68258343 12.5192618 137.4597168 12.61791992 C124.79719309 13.20086409 112.81136159 17.16945929 103.7878418 26.48510742 C91.49403777 41.57295782 94.54439393 65.64232406 94.35821915 84.03803635 C94.33440629 86.33537568 94.30760774 88.63266403 94.28012085 90.92996216 C93.87307292 125.56332193 93.82267129 160.20097216 93.78177881 194.83639485 C93.77522414 200.11547964 93.76404999 205.39454182 93.75115967 210.6736145 C93.58647348 255.2641246 93.58647348 255.2641246 95.7101593 299.79225159 C96.05536043 304.56539855 96.3196801 309.34215204 96.58180237 314.1204834 C97.16006459 323.60289027 97.90367457 331.97958221 102.9597168 340.24291992 C103.41475586 341.0034668 103.86979492 341.76401367 104.33862305 342.54760742 C108.73483673 349.08802341 114.8428326 353.40581373 122.65893555 354.95385742 C151.06752725 358.52301835 185.65963415 338.68095023 207.67016602 321.94213867 C215.16387718 316.04739733 221.95358897 309.67183753 227.9597168 302.24291992 C229.10633789 300.8275293 229.10633789 300.8275293 230.27612305 299.38354492 C245.48221035 279.74838054 255.58381281 256.32100964 259.49316406 231.87646484 C260.33625297 226.95736342 261.35028985 223.93471968 264.9597168 220.24291992 C269.8347168 221.11791992 269.8347168 221.11791992 270.9597168 222.24291992 C271.63654392 230.071128 270.35575783 237.28013342 268.5847168 244.86791992 C263.63658265 267.52936767 260.75308356 291.52220895 266.9597168 314.24291992 C267.85883789 313.9702832 267.85883789 313.9702832 268.77612305 313.69213867 C305.66436561 303.45998035 349.15184856 305.07679567 384.9597168 318.24291992 C385.64098633 318.48268555 386.32225586 318.72245117 387.02416992 318.96948242 C407.88660026 326.33507373 424.23875881 339.81666443 433.8347168 359.86791992 C441.78750884 378.65296319 442.67130878 400.80171494 435.2253418 419.93041992 C424.61639557 445.36445167 408.57612354 461.01906482 383.6784668 472.27416992 C369.43792797 478.11045633 347.72225674 479.46832317 333.43237305 473.51245117 C326.83441825 470.12487564 320.91317708 466.88436081 315.9597168 461.24291992 C315.46858398 460.73116211 314.97745117 460.2194043 314.47143555 459.69213867 C305.99156847 450.53893228 303.59973769 439.34227658 303.7097168 427.18041992 C303.70198242 426.32125977 303.69424805 425.46209961 303.6862793 424.5769043 C303.70205541 419.41417216 304.28827187 415.13123306 305.9597168 410.24291992 C304.9078418 410.18104492 303.8559668 410.11916992 302.7722168 410.05541992 C295.88989486 409.22756432 289.13037844 406.32825074 282.9597168 403.24291992 C282.89655273 404.23549805 282.83338867 405.22807617 282.76831055 406.25073242 C281.44585866 422.29913351 275.12042798 434.1106208 263.0300293 444.97729492 C242.92249334 461.1634442 219.13364731 460.55984992 194.75463867 460.05102539 C175.18804874 459.67013071 161.18232319 463.36087432 143.37988281 471.41113281 C141.55190801 472.23394616 139.71877551 473.04527119 137.88549805 473.85620117 C136.81726807 474.33871338 135.74903809 474.82122559 134.6484375 475.31835938 C131.9597168 476.24291992 131.9597168 476.24291992 128.9597168 475.24291992 C142.17304584 459.38054182 159.37210935 449.99684663 179.9597168 447.24291992 C186.1752274 446.99253205 192.40574798 446.97329747 198.5847168 447.74291992 C218.61916534 449.95066343 237.73574378 448.16900181 254.67456055 436.34838867 C262.36356967 430.11624444 268.21189614 422.25515917 269.28100586 412.23022461 C269.53425069 407.73943806 269.65994197 403.27211851 269.61035156 398.77416992 C269.60575928 397.7300293 269.60116699 396.68588867 269.59643555 395.61010742 C269.56102661 394.20414307 269.56102661 394.20414307 269.52490234 392.76977539 C270.09777975 389.44058889 271.3093416 388.27098667 273.9597168 386.24291992 C278.23371211 386.1607277 280.97011177 387.10983365 284.3972168 389.49291992 C288.39450488 392.18657377 292.52229394 393.62224152 297.0847168 395.05541992 C298.10650024 395.38364746 298.10650024 395.38364746 299.14892578 395.71850586 C304.98412392 397.48683305 304.98412392 397.48683305 310.9597168 397.24291992 C312.68752467 395.1104003 313.86525466 393.30932189 315.1472168 390.93041992 C321.81423154 379.66176233 330.50122541 371.66956224 341.9597168 365.24291992 C342.60038086 364.85620117 343.24104492 364.46948242 343.90112305 364.07104492 C353.62037281 358.61315089 364.41510016 356.8770961 375.3972168 356.74291992 C376.22511719 356.72455078 377.05301758 356.70618164 377.90600586 356.68725586 C384.65559555 356.75521387 389.84246021 358.55293209 394.9831543 362.98901367 C395.65217773 363.82625977 395.65217773 363.82625977 396.3347168 364.68041992 C396.79620117 365.23600586 397.25768555 365.7915918 397.7331543 366.36401367 C401.46543818 372.08130204 401.64824258 377.60803506 400.9597168 384.24291992 C398.60594365 394.70062343 391.28175354 402.28256909 382.5847168 408.11791992 C371.61811429 414.6211919 361.01104983 416.44146971 348.4597168 416.43041992 C347.59548096 416.43033936 346.73124512 416.43025879 345.84082031 416.43017578 C336.96883851 416.35277306 327.42455192 416.06453163 318.9597168 413.24291992 C319.29010672 424.70745034 320.70165254 435.62488877 328.9597168 444.24291992 C339.93797184 453.61735581 352.67612337 455.3498314 366.60083008 454.46166992 C383.71384625 452.87470423 400.53168386 445.18067627 411.9597168 432.24291992 C414.58768252 428.7143592 416.82477472 425.08581566 418.9597168 421.24291992 C419.35803711 420.61256836 419.75635742 419.9822168 420.16674805 419.33276367 C427.20249976 407.34299951 427.6740165 389.26028872 424.8972168 376.11791992 C421.48391257 364.28300526 415.40295921 353.89494643 404.8659668 347.30932617 C384.8154635 336.44863689 360.67643685 336.93999991 338.9597168 342.24291992 C337.09959961 342.64317383 337.09959961 342.64317383 335.2019043 343.05151367 C303.74842077 350.20003265 274.53941504 365.95596682 246.9597168 382.24291992 C246.29762207 382.6307666 245.63552734 383.01861328 244.95336914 383.41821289 C235.34812318 389.05188617 225.90789246 394.96370914 216.42724609 400.80322266 C175.20613552 426.1875728 175.20613552 426.1875728 159.9597168 434.24291992 C158.97285889 434.76523193 158.97285889 434.76523193 157.96606445 435.2980957 C143.64449855 442.8126062 128.56262679 449.87042302 112.9597168 454.24291992 C111.77249023 454.57936523 111.77249023 454.57936523 110.5612793 454.92260742 C104.07462831 456.41637879 97.52362299 456.47825332 90.8972168 456.55541992 C89.97505371 456.57314453 89.05289062 456.59086914 88.1027832 456.60913086 C82.41117002 456.60304683 77.77073132 455.8344206 72.44628906 453.79052734 C66.0578004 452.38361718 59.61741693 455.16950546 53.6081543 457.19213867 C52.71343414 457.48723831 51.81871399 457.78233795 50.8968811 458.08638 C48.040954 459.02884618 45.18763342 459.9788832 42.3347168 460.93041992 C-7.14557189 477.40230634 -7.14557189 477.40230634 -29.7277832 477.68041992 C-31.42088623 477.71401611 -31.42088623 477.71401611 -33.14819336 477.74829102 C-44.50410942 477.71676063 -53.61331615 474.67040333 -62.98168945 468.31713867 C-70.83623317 465.55851859 -80.723374 468.79613626 -88.7277832 470.18041992 C-116.60296618 474.74883548 -149.31403003 478.58919213 -177.0402832 471.24291992 C-177.72219727 471.07663086 -178.40411133 470.9103418 -179.10668945 470.73901367 C-195.01796658 466.84060639 -208.92483553 460.44874133 -221.0402832 449.24291992 C-221.80598633 448.56874023 -222.57168945 447.89456055 -223.3605957 447.19995117 C-232.07711206 439.10604313 -239.40820132 428.2252055 -244.0402832 417.24291992 C-244.0402832 416.58291992 -244.0402832 415.92291992 -244.0402832 415.24291992 C-240.2194223 416.57249893 -237.64458858 418.22149652 -234.6027832 420.86791992 C-205.12696529 444.86593097 -164.34384335 446.05635193 -128.0402832 442.68041992 C-105.96711539 440.25333342 -83.38159299 435.29990698 -62.0402832 429.24291992 C-60.81946045 428.89656494 -60.81946045 428.89656494 -59.57397461 428.54321289 C-52.69126468 426.56200456 -45.86203819 424.42375932 -39.0402832 422.24291992 C-38.00735138 421.91363495 -38.00735138 421.91363495 -36.95355225 421.57769775 C-32.25070499 420.0767286 -27.55404851 418.55783343 -22.86254883 417.02175903 C-21.29873389 416.51103369 -19.73382255 416.00365071 -18.16772461 415.49996948 C-3.41067085 410.74239496 9.92990219 405.6005437 20.9597168 394.24291992 C21.65581055 393.55584961 22.3519043 392.8687793 23.0690918 392.16088867 C40.8292131 373.60913405 45.67157467 347.53274614 46.48803711 322.75537109 C46.52941425 321.56187388 46.5707914 320.36837667 46.61342239 319.13871288 C47.00764392 307.44209765 47.29999948 295.74505169 47.5065918 284.04370117 C47.52728477 282.8856579 47.54797775 281.72761463 47.56929779 280.53447914 C48.19592499 244.12897951 48.18253637 207.71591026 48.1985364 171.30606067 C48.2033148 160.6345846 48.22099466 149.9632334 48.24961209 139.29179496 C48.27131146 130.89974191 48.28131899 122.50772408 48.28265262 114.11564332 C48.28368811 109.15935791 48.28933132 104.20319355 48.30747223 99.24693871 C48.32411544 94.61770231 48.32603106 89.9886767 48.31733322 85.35942078 C48.31657343 83.68264506 48.32076211 82.005857 48.33079147 80.3291111 C48.43808746 61.25196104 47.84247982 38.88638228 33.9597168 24.24291992 C25.08362479 15.79118291 14.84451066 12.0107546 2.7722168 10.79760742 C-0.29841455 10.19201068 -1.81001535 9.41505283 -4.0402832 7.24291992 C-4.4152832 4.68041992 -4.4152832 4.68041992 -4.0402832 2.24291992 C-2.0402832 0.24291992 -2.0402832 0.24291992 0 0 Z " fill="#FAFAFA" transform="translate(370.040283203125,268.757080078125)"/>
<path d="M0 0 C1.65612305 0.00676758 1.65612305 0.00676758 3.34570312 0.01367188 C6.043027 0.0253486 8.74023347 0.04172475 11.4375 0.0625 C11.4375 0.3925 11.4375 0.7225 11.4375 1.0625 C10.39130493 1.24256592 10.39130493 1.24256592 9.32397461 1.42626953 C-3.12770131 3.59204414 -15.51956324 5.85186599 -27.75 9.0625 C-28.6066626 9.28695801 -29.4633252 9.51141602 -30.34594727 9.74267578 C-44.21876572 13.49037785 -57.85113361 18.08562399 -71.4375 22.75 C-72.19595215 23.01016907 -72.9544043 23.27033813 -73.73583984 23.53839111 C-87.81393616 28.37819605 -101.72635886 33.56689147 -115.5625 39.0625 C-116.81955336 39.55903027 -118.07671873 40.05527704 -119.33398438 40.55126953 C-148.85317543 52.20415872 -178.15635076 64.38940545 -207.44921875 76.59765625 C-227.67559407 85.02413494 -247.93118875 93.34599098 -268.37939453 101.22131348 C-270.66252346 102.10104069 -272.94451708 102.98367729 -275.2265625 103.86621094 C-381.8468828 145.01861109 -381.8468828 145.01861109 -427.56640625 145.265625 C-428.82782692 145.27417511 -428.82782692 145.27417511 -430.11473083 145.28289795 C-431.88710292 145.29229137 -433.65949202 145.29885923 -435.43188477 145.30273438 C-438.09358629 145.31238609 -440.7544964 145.34344146 -443.41601562 145.375 C-456.86726448 145.4597524 -469.37555221 144.23637696 -481.9375 139 C-482.576875 138.74412109 -483.21625 138.48824219 -483.875 138.22460938 C-488.4223623 136.3427754 -488.4223623 136.3427754 -489.5625 134.0625 C-488.92817551 134.05441315 -488.29385101 134.04632629 -487.64030457 134.03799438 C-480.93832936 133.95082018 -474.23661257 133.85129308 -467.53491211 133.74511719 C-465.04569903 133.70722425 -462.55643853 133.6723085 -460.06713867 133.640625 C-439.66812207 133.37788862 -420.00321255 131.94766498 -399.9375 128.3125 C-398.84764801 128.11741852 -398.84764801 128.11741852 -397.73577881 127.918396 C-364.87574225 122.01347415 -332.59621839 112.85534051 -301.125 101.75 C-300.39940887 101.49406067 -299.67381775 101.23812134 -298.92623901 100.97442627 C-264.09995543 88.64739541 -230.10853807 74.14796394 -196.10107422 59.75097656 C-159.36353156 44.20071245 -122.44246566 29.60536512 -84.5625 17.0625 C-83.57894531 16.73427246 -82.59539062 16.40604492 -81.58203125 16.06787109 C-55.26701568 7.32078352 -27.8853148 -0.2185106 0 0 Z " fill="#070707" transform="translate(678.5625,587.9375)"/>
<path d="M0 0 C-2.87697332 1.91798221 -4.82603913 2.64786852 -8.109375 3.55859375 C-9.15706055 3.85572266 -10.20474609 4.15285156 -11.28417969 4.45898438 C-12.42790039 4.78189453 -13.57162109 5.10480469 -14.75 5.4375 C-57.97829713 18.01342571 -99.17004041 36.21817454 -140 55 C-140.71067627 55.3267572 -141.42135254 55.6535144 -142.15356445 55.99017334 C-156.04150721 62.38082885 -169.86019762 68.91034279 -183.625 75.5625 C-196.65373879 81.8584314 -209.74313533 88.01291128 -222.89935303 94.03790283 C-224.361216 94.70743667 -225.82282653 95.37752183 -227.28424072 96.04803467 C-248.96154084 105.99144153 -270.633164 115.69241478 -293 124 C-294.11487793 124.41604492 -295.22975586 124.83208984 -296.37841797 125.26074219 C-319.19087017 133.73553049 -342.83765945 142.1700161 -367.4375 142.1875 C-368.79198242 142.20586914 -368.79198242 142.20586914 -370.17382812 142.22460938 C-375.80059377 142.23683262 -380.60139143 141.597483 -386 140 C-385.505 139.01 -385.505 139.01 -385 138 C-382.70043945 137.36499023 -382.70043945 137.36499023 -379.61328125 136.80859375 C-378.46279297 136.59106445 -377.31230469 136.37353516 -376.12695312 136.14941406 C-374.86818359 135.91448242 -373.60941406 135.67955078 -372.3125 135.4375 C-356.53606069 132.36039522 -341.29110737 127.95884293 -326 123 C-324.80407227 122.61328125 -323.60814453 122.2265625 -322.37597656 121.828125 C-292.78046164 112.15902129 -264.27871711 99.97692103 -236 87 C-234.93238434 86.51019653 -234.93238434 86.51019653 -233.84320068 86.01049805 C-226.80153227 82.77888584 -219.76262356 79.54127717 -212.72436523 76.30224609 C-43.12470135 -1.72498805 -43.12470135 -1.72498805 0 0 Z " fill="#080808" transform="translate(702,593)"/>
<path d="M0 0 C-2.89677041 2.89677041 -6.49838597 3.62198781 -10.3125 4.875 C-34.34830516 13.07248855 -57.33171247 23.62249685 -80 35 C-80.92022949 35.46148438 -81.84045898 35.92296875 -82.78857422 36.3984375 C-98.45280479 44.3129961 -113.38421655 53.40338018 -128.1875 62.8125 C-214.43983973 117.59671452 -214.43983973 117.59671452 -253.4375 117.0625 C-254.30246094 117.05347656 -255.16742188 117.04445313 -256.05859375 117.03515625 C-256.69925781 117.02355469 -257.33992188 117.01195312 -258 117 C-255.6496872 115.4331248 -253.40046717 114.11171001 -250.90625 112.8125 C-250.05869141 112.37035156 -249.21113281 111.92820312 -248.33789062 111.47265625 C-247.40138672 110.98667969 -246.46488281 110.50070312 -245.5 110 C-244.50677734 109.48308594 -243.51355469 108.96617187 -242.49023438 108.43359375 C-232.41033615 103.19617828 -222.30483051 98.00847097 -212.20025635 92.81887817 C-203.24410436 88.21897891 -194.29570823 83.60590063 -185.375 78.9375 C-182.60318147 77.48978904 -179.83100367 76.04276949 -177.05859375 74.59619141 C-174.88888861 73.4638852 -172.71966685 72.33065256 -170.55078125 71.19677734 C-31.66697863 -1.34753101 -31.66697863 -1.34753101 0 0 Z " fill="#080808" transform="translate(709,599)"/>
<path d="M0 0 C3.84115603 2.98243605 5.42011538 5.87874756 6.125 10.63671875 C5.16560219 17.59235287 2.1948987 22.59552988 -3.31640625 26.9453125 C-19.13867215 37.06315616 -39.01712028 33.67238985 -56.375 30.26171875 C-52.77485578 18.10471001 -41.81527141 7.53386468 -30.90234375 1.48046875 C-21.39157309 -3.10586888 -9.59805989 -5.69884806 0 0 Z " fill="#040404" transform="translate(750.375,639.73828125)"/>
<path d="M0 0 C1.65 0 3.3 0 5 0 C5.33 4.29 5.66 8.58 6 13 C6.9075 11.989375 7.815 10.97875 8.75 9.9375 C10.296875 8.21484375 10.296875 8.21484375 12 7 C14.203125 7.31640625 14.203125 7.31640625 16 8 C15.154375 8.721875 14.30875 9.44375 13.4375 10.1875 C10.78069093 12.67228979 10.78069093 12.67228979 10.875 15.3125 C12.48458201 19.15761259 14.67860487 22.54788843 17 26 C14.8125 26.4375 14.8125 26.4375 12 26 C10.47721739 24.31282609 9.31032522 22.55899343 8.11328125 20.62890625 C7.083831 18.83937637 7.083831 18.83937637 5 18 C5 20.64 5 23.28 5 26 C3.35 26 1.7 26 0 26 C-0.495 23.525 -0.495 23.525 -1 21 C-2.299375 22.2375 -2.299375 22.2375 -3.625 23.5 C-5.98607645 25.44997137 -6.94369534 25.98965833 -10.0625 26.5625 C-13.67781108 25.87020639 -15.38108416 24.54408967 -18 22 C-19.55024464 18.89951072 -19.28992015 16.42105782 -19 13 C-17.20437595 10.24670979 -15.94745078 8.47372539 -13 7 C-9.12785818 6.56976202 -7.47503629 6.68330914 -4.1875 8.875 C-2 11 -2 11 -1 13 C-0.67 8.71 -0.34 4.42 0 0 Z " fill="#0B0B0B" transform="translate(202,1026)"/>
<path d="M0 0 C0 1.32 0 2.64 0 4 C0.66 4 1.32 4 2 4 C2.33 3.01 2.66 2.02 3 1 C9.625 -0.25 9.625 -0.25 13 2 C13 2.66 13 3.32 13 4 C13.680625 3.319375 14.36125 2.63875 15.0625 1.9375 C18 0 18 0 21.75 0.1875 C25 1 25 1 26 2 C26.4375 4.6875 26.4375 4.6875 26 8 C24.19422788 10.3322363 22.23849185 12.04131963 20 14 C22.31 14.33 24.62 14.66 27 15 C27 15.66 27 16.32 27 17 C17.1 17 7.2 17 -3 17 C-3 12.71 -3 8.42 -3 4 C-4.32 4.33 -5.64 4.66 -7 5 C-5.22678182 1.07358831 -4.52021524 0 0 0 Z " fill="#131313" transform="translate(876,1034)"/>
<path d="M0 0 C3.0625 0.25 3.0625 0.25 6.0625 2.25 C6.7225 1.59 7.3825 0.93 8.0625 0.25 C10.6640625 0.0546875 10.6640625 0.0546875 13.6875 0.125 C15.19183594 0.15207031 15.19183594 0.15207031 16.7265625 0.1796875 C17.49742187 0.20289063 18.26828125 0.22609375 19.0625 0.25 C18.48905063 3.11724686 18.2010485 4.1114515 16.0625 6.25 C16.7225 6.641875 17.3825 7.03375 18.0625 7.4375 C20.0625 9.25 20.0625 9.25 20.5625 11.75 C20.0625 14.25 20.0625 14.25 18.5 16.125 C15.00412625 17.73848019 12.73905655 17.18585076 9.0625 16.25 C7.125 14.6875 7.125 14.6875 6.0625 13.25 C5.7325 14.24 5.4025 15.23 5.0625 16.25 C2.29149606 17.63550197 0.1290294 17.4377467 -2.9375 17.25 C-3.9275 16.59 -4.9175 15.93 -5.9375 15.25 C-5.82373383 13.12436897 -5.69614369 10.9994739 -5.5625 8.875 C-5.49289062 7.69164062 -5.42328125 6.50828125 -5.3515625 5.2890625 C-4.79750695 1.22250384 -4.12017295 0.35065302 0 0 Z " fill="#151515" transform="translate(909.9375,1033.75)"/>
<path d="M0 0 C4.58961664 0.88571549 6.52623798 2.13285178 9.5625 5.6875 C10.30890732 8.51359184 10.24967509 10.85290277 9.5625 13.6875 C7.76886089 16.4975346 6.54369065 18.19690468 3.5625 19.6875 C-0.03454193 20.08717133 -2.00529887 19.9084028 -5.25 18.25 C-7.91810109 15.12451015 -8.46774067 12.99865868 -8.6953125 8.94921875 C-8.09582362 3.69006627 -5.19772697 1.03954539 0 0 Z " fill="#ECECEC" transform="translate(171.4375,1032.3125)"/>
<path d="M0 0 C5.54361702 3.28510638 5.54361702 3.28510638 6.515625 6.9375 C6.71870236 10.76695879 6.22165721 12.65273704 4.125 15.9375 C1.36482531 18.61649308 0.50885848 18.95288347 -3.375 19.3125 C-7 19 -7 19 -9.375 17.5625 C-11.72393731 13.85840655 -12.35037821 10.36804841 -12 6 C-8.82223121 0.74024476 -6.0907066 -0.70277384 0 0 Z " fill="#ECECEC" transform="translate(110,1033)"/>
<path d="M0 0 C0.33 0.66 0.66 1.32 1 2 C3.6905528 0.77992056 3.6905528 0.77992056 6 -1 C9.4375 -0.75 9.4375 -0.75 13 0 C15 3 15 3 14.8125 6.5625 C14 10 14 10 11 12 C8.5 12.3125 8.5 12.3125 6 12 C4.3125 10.5 4.3125 10.5 3 9 C2.34 9 1.68 9 1 9 C0.566875 9.495 0.13375 9.99 -0.3125 10.5 C-2 12 -2 12 -4.5 12.375 C-7 12 -7 12 -8.8125 10.9375 C-10.67036623 7.90624457 -10.37133265 5.46577141 -10 2 C-7.70989947 -2.31077747 -4.20045325 -1.01122023 0 0 Z " fill="#131313" transform="translate(824,1039)"/>
<path d="M0 0 C3.38031589 1.18767855 3.93216817 1.89825225 6 5 C6 5.99 6 6.98 6 8 C4.68 8 3.36 8 2 8 C1.34 7.01 0.68 6.02 0 5 C-3.58357241 4.74984127 -3.58357241 4.74984127 -7 5 C-7 6.32 -7 7.64 -7 9 C-5.84371094 9.39832031 -5.84371094 9.39832031 -4.6640625 9.8046875 C-3.66117188 10.15789062 -2.65828125 10.51109375 -1.625 10.875 C-0.12839844 11.39707031 -0.12839844 11.39707031 1.3984375 11.9296875 C4 13 4 13 6 15 C6.36599043 18.36711191 6.37424895 20.34060899 4.6875 23.3125 C2.01133602 25.98866398 -0.19786781 26.01570379 -3.9375 26.3125 C-7.03424615 26.27265216 -7.82108517 26.12845167 -10.4375 24.25 C-11.94398898 22.08065587 -12.62951193 20.5934165 -13 18 C-11.68 18 -10.36 18 -9 18 C-8.34 18.99 -7.68 19.98 -7 21 C-5.02252878 21.36297936 -5.02252878 21.36297936 -2.875 21.1875 C-1.59625 21.125625 -0.3175 21.06375 1 21 C0.67 19.35 0.34 17.7 0 16 C-0.69867188 15.81824219 -1.39734375 15.63648438 -2.1171875 15.44921875 C-3.02726563 15.19785156 -3.93734375 14.94648437 -4.875 14.6875 C-5.77992188 14.44386719 -6.68484375 14.20023438 -7.6171875 13.94921875 C-10 13 -10 13 -12 10 C-12.4375 7.0625 -12.4375 7.0625 -12 4 C-8.37283367 -0.17673698 -5.37688348 -0.58656911 0 0 Z " fill="#E6E6E6" transform="translate(143,1026)"/>
<path d="M0 0 C0.99 0 1.98 0 3 0 C3.33 2.64 3.66 5.28 4 8 C5.32 6.68 6.64 5.36 8 4 C8.99 4.33 9.98 4.66 11 5 C10.01 5.33 9.02 5.66 8 6 C7.12245809 8.20438833 7.12245809 8.20438833 7 11 C8.83317376 14.29248108 8.83317376 14.29248108 11 17 C7.20411134 16.45773019 5.52788007 14.79872437 3 12 C3 13.65 3 15.3 3 17 C2.01 17 1.02 17 0 17 C-0.33 16.01 -0.66 15.02 -1 14 C-1.66 14 -2.32 14 -3 14 C-3 14.66 -3 15.32 -3 16 C-9.37426409 17.32296047 -9.37426409 17.32296047 -11.9375 16 C-13.58367385 12.90131981 -13.36841966 10.43858351 -13 7 C-11.9375 5 -11.9375 5 -10 4 C-6.3766682 4.12940471 -3.93014969 4.24987928 -1.0625 6.5625 C-0.711875 7.036875 -0.36125 7.51125 0 8 C0 5.36 0 2.72 0 0 Z " fill="#0E0E0E" transform="translate(796,1034)"/>
<path d="M0 0 C4.37384952 0.85914901 5.88134295 2.11660402 8.5 5.6875 C8.5 7.3375 8.5 8.9875 8.5 10.6875 C4.21 10.6875 -0.08 10.6875 -4.5 10.6875 C-4.17 12.3375 -3.84 13.9875 -3.5 15.6875 C-0.58347826 15.85431109 -0.58347826 15.85431109 2.5 15.6875 C3.16 15.0275 3.82 14.3675 4.5 13.6875 C6.625 14.0625 6.625 14.0625 8.5 14.6875 C5.76057998 18.00800912 4.30649943 19.54348224 0 20.3125 C-3.5 19.6875 -3.5 19.6875 -6.4375 17.6875 C-8.59159963 14.55426418 -9.24851975 12.5093219 -8.98046875 8.69140625 C-7.78249314 3.69497141 -5.13107119 1.00788898 0 0 Z " fill="#ECECEC" transform="translate(56.5,1032.3125)"/>
<path d="M0 0 C1 1 1 1 1.4375 3.6875 C0.80565824 8.47144475 -1.42136191 9.86869167 -5 13 C-2.69 13.33 -0.38 13.66 2 14 C2 14.66 2 15.32 2 16 C-2.62 16 -7.24 16 -12 16 C-12 15.34 -12 14.68 -12 14 C-14.31 14 -16.62 14 -19 14 C-18.57847656 13.54109375 -18.15695312 13.0821875 -17.72265625 12.609375 C-16.90087891 11.68898438 -16.90087891 11.68898438 -16.0625 10.75 C-15.51722656 10.14671875 -14.97195313 9.5434375 -14.41015625 8.921875 C-12.9196439 6.89048421 -12.5591306 5.41960055 -12 3 C-8.05654589 -1.29140594 -5.54578422 -1.38644605 0 0 Z " fill="#141414" transform="translate(901,1035)"/>
<path d="M0 0 C1.32 0 2.64 0 4 0 C6.31 6.6 8.62 13.2 11 20 C13.31 13.4 15.62 6.8 18 0 C19.32 0 20.64 0 22 0 C20.36231563 9.00726401 17.13020303 17.42639358 14 26 C12.35 26 10.7 26 9 26 C0 5.19672131 0 5.19672131 0 0 Z " fill="#EDEDED" transform="translate(27,1026)"/>
<path d="M0 0 C1.32 0 2.64 0 4 0 C4.33 4.29 4.66 8.58 5 13 C5.9075 11.989375 6.815 10.97875 7.75 9.9375 C9.296875 8.21484375 9.296875 8.21484375 11 7 C13.203125 7.31640625 13.203125 7.31640625 15 8 C14.154375 8.721875 13.30875 9.44375 12.4375 10.1875 C9.78069093 12.67228979 9.78069093 12.67228979 9.875 15.3125 C11.48458201 19.15761259 13.67860487 22.54788843 16 26 C13.8125 26.4375 13.8125 26.4375 11 26 C9.47721739 24.31282609 8.31032522 22.55899343 7.11328125 20.62890625 C6.083831 18.83937637 6.083831 18.83937637 4 18 C4 20.64 4 23.28 4 26 C2.68 26 1.36 26 0 26 C0 17.42 0 8.84 0 0 Z " fill="#E4E4E4" transform="translate(203,1026)"/>
<path d="M0 0 C1.9375 1.25 1.9375 1.25 3 3 C2.7181953 5.32488881 2.04553582 6.90892835 1 9 C1.66 9 2.32 9 3 9 C3.1875 11.875 3.1875 11.875 3 15 C-0.46998729 17.31332486 -1.92509248 17.33957563 -6 17 C-6.99 16.34 -7.98 15.68 -9 15 C-8.814375 13.7625 -8.62875 12.525 -8.4375 11.25 C-8.10163958 8.71089523 -7.95109478 7.18094931 -8.625 4.6875 C-9 3 -9 3 -7.9375 1.25 C-5.15593839 -0.54455588 -3.24250962 -0.4053137 0 0 Z " fill="#E6E6E6" transform="translate(941,1034)"/>
<path d="M0 0 C3.0625 0.25 3.0625 0.25 6.0625 2.25 C5.876875 3.384375 5.69125 4.51875 5.5 5.6875 C5.2834375 7.4509375 5.2834375 7.4509375 5.0625 9.25 C5.3925 9.58 5.7225 9.91 6.0625 10.25 C6.3125 12.6875 6.3125 12.6875 6.0625 15.25 C2.59251271 17.56332486 1.13740752 17.58957563 -2.9375 17.25 C-3.9275 16.59 -4.9175 15.93 -5.9375 15.25 C-5.82373383 13.12436897 -5.69614369 10.9994739 -5.5625 8.875 C-5.49289062 7.69164062 -5.42328125 6.50828125 -5.3515625 5.2890625 C-4.79750695 1.22250384 -4.12017295 0.35065302 0 0 Z " fill="#E1E1E1" transform="translate(964.9375,1033.75)"/>
<path d="M0 0 C3.0625 0.25 3.0625 0.25 6.0625 2.25 C5.876875 3.384375 5.69125 4.51875 5.5 5.6875 C5.2834375 7.4509375 5.2834375 7.4509375 5.0625 9.25 C5.3925 9.58 5.7225 9.91 6.0625 10.25 C6.3125 12.6875 6.3125 12.6875 6.0625 15.25 C2.59251271 17.56332486 1.13740752 17.58957563 -2.9375 17.25 C-3.9275 16.59 -4.9175 15.93 -5.9375 15.25 C-5.82373383 13.12436897 -5.69614369 10.9994739 -5.5625 8.875 C-5.49289062 7.69164062 -5.42328125 6.50828125 -5.3515625 5.2890625 C-4.79750695 1.22250384 -4.12017295 0.35065302 0 0 Z " fill="#F2F2F2" transform="translate(909.9375,1033.75)"/>
<path d="M0 0 C3.9375 0.625 3.9375 0.625 6.4375 2.4375 C7.9375 4.625 7.9375 4.625 7.9375 7.625 C6.6175 7.295 5.2975 6.965 3.9375 6.625 C3.9375 5.965 3.9375 5.305 3.9375 4.625 C1.02097826 4.45818891 1.02097826 4.45818891 -2.0625 4.625 C-4.44244368 6.56832332 -4.44244368 6.56832332 -4.3125 10.125 C-4.44244368 13.68167668 -4.44244368 13.68167668 -2.0625 15.625 C1.02097826 15.79181109 1.02097826 15.79181109 3.9375 15.625 C4.2675 14.635 4.5975 13.645 4.9375 12.625 C5.9275 12.625 6.9175 12.625 7.9375 12.625 C7.58143309 15.20648508 7.10421807 16.44545747 5.3125 18.375 C1.8922479 20.17513268 -0.2526659 20.22655275 -4.0625 19.625 C-7.72521372 16.42986675 -8.83553522 14.89600277 -9.6875 10.125 C-8.66510717 4.39960014 -6.09761212 0.33052477 0 0 Z " fill="#E9E9E9" transform="translate(76.0625,1032.375)"/>
<path d="M0 0 C2.875 1.8125 2.875 1.8125 5 4 C5 4.99 5 5.98 5 7 C3.68 6.67 2.36 6.34 1 6 C1 5.34 1 4.68 1 4 C-1.91652174 3.83318891 -1.91652174 3.83318891 -5 4 C-7.21370051 5.78657757 -7.21370051 5.78657757 -7.1953125 8.1640625 C-7.17210937 8.97617188 -7.14890625 9.78828125 -7.125 10.625 C-7.10695312 11.44226562 -7.08890625 12.25953125 -7.0703125 13.1015625 C-7.04710937 13.72804688 -7.02390625 14.35453125 -7 15 C-4.36 15 -1.72 15 1 15 C1.33 14.01 1.66 13.02 2 12 C2.99 12 3.98 12 5 12 C4.63802104 14.62434747 4.17343943 15.82013689 2.3125 17.75 C-0.75114795 19.40602592 -2.55734817 19.4918074 -6 19 C-8.69990662 17.20006226 -10.5418865 15.916227 -12 13 C-12.39447548 8.81855989 -12.45035186 6.69053952 -10.125 3.125 C-6.79974618 -0.20025382 -4.65430991 -0.45630489 0 0 Z " fill="#EDEDED" transform="translate(195,1033)"/>
<path d="M0 0 C2.31361802 3.47042703 2.51020728 4.91834173 2 9 C-0.11689705 11.35210784 -1.44041515 11.91810953 -4.5625 12.375 C-7 12 -7 12 -8.8125 10.9375 C-10.67036623 7.90624457 -10.37133265 5.46577141 -10 2 C-7.71139092 -2.30797003 -4.19123206 -1.06685907 0 0 Z " fill="#EEEEEE" transform="translate(737,1039)"/>
<path d="M0 0 C2 3 2 3 1.8125 6.5625 C1 10 1 10 -2 12 C-4.79523674 12.34940459 -6.3648354 12.37233787 -8.8125 10.9375 C-10.67036623 7.90624457 -10.37133265 5.46577141 -10 2 C-7.71139092 -2.30797003 -4.19123206 -1.06685907 0 0 Z " fill="#E5E5E5" transform="translate(837,1039)"/>
<path d="M0 0 C2 3 2 3 1.8125 6.5625 C1 10 1 10 -2 12 C-4.79523674 12.34940459 -6.3648354 12.37233787 -8.8125 10.9375 C-10.67036623 7.90624457 -10.37133265 5.46577141 -10 2 C-7.71139092 -2.30797003 -4.19123206 -1.06685907 0 0 Z " fill="#E5E5E5" transform="translate(780,1039)"/>
<path d="M0 0 C2.62527189 -0.05382106 5.24944713 -0.09358313 7.875 -0.125 C8.62136719 -0.14175781 9.36773438 -0.15851563 10.13671875 -0.17578125 C12.09194461 -0.1933959 14.04742021 -0.10320189 16 0 C18 2 18 2 18.1953125 4.6015625 C18.17210937 5.59929687 18.14890625 6.59703125 18.125 7.625 C18.10695313 8.62789062 18.08890625 9.63078125 18.0703125 10.6640625 C18.04710937 11.43492188 18.02390625 12.20578125 18 13 C17.34 13 16.68 13 16 13 C15.67 10.03 15.34 7.06 15 4 C13.68 4 12.36 4 11 4 C10.67 6.97 10.34 9.94 10 13 C9.34 13 8.68 13 8 13 C7.67 9.7 7.34 6.4 7 3 C6.01 3 5.02 3 4 3 C3.67 6.3 3.34 9.6 3 13 C2.01 13 1.02 13 0 13 C0 8.71 0 4.42 0 0 Z " fill="#EFEFEF" transform="translate(840,1038)"/>
<path d="M0 0 C1.52491998 3.04983996 1.23562548 5.6423369 1 9 C-0.1875 11 -0.1875 11 -2 12 C-5.34192692 11.75546876 -6.60543557 11.39456443 -9 9 C-9.54782609 2.97391304 -9.54782609 2.97391304 -7.875 0 C-5.01598528 -1.52480785 -3.03270286 -0.8570682 0 0 Z " fill="#080808" transform="translate(176,1037)"/>
<path d="M0 0 C1.52491998 3.04983996 1.23562548 5.6423369 1 9 C-0.1875 11 -0.1875 11 -2 12 C-5.34192692 11.75546876 -6.60543557 11.39456443 -9 9 C-9.54782609 2.97391304 -9.54782609 2.97391304 -7.875 0 C-5.01598528 -1.52480785 -3.03270286 -0.8570682 0 0 Z " fill="#080808" transform="translate(111,1037)"/>
<path d="M0 0 C0.99 0 1.98 0 3 0 C3 1.65 3 3.3 3 5 C4.32 5 5.64 5 7 5 C7 5.99 7 6.98 7 8 C5.68 8 4.36 8 3 8 C3 12.29 3 16.58 3 21 C4.32 21 5.64 21 7 21 C7 21.99 7 22.98 7 24 C5.00045254 24.04254356 2.99958364 24.04080783 1 24 C0 23 0 23 -0.09765625 19.62109375 C-0.09098369 18.22652923 -0.07902532 16.83198257 -0.0625 15.4375 C-0.05798828 14.72658203 -0.05347656 14.01566406 -0.04882812 13.28320312 C-0.03700864 11.52209987 -0.01907263 9.76103964 0 8 C-1.32 8 -2.64 8 -4 8 C-4 7.01 -4 6.02 -4 5 C-2.68 5 -1.36 5 0 5 C0 3.35 0 1.7 0 0 Z " fill="#F6F6F6" transform="translate(154,1028)"/>
<path d="M0 0 C0.99 0 1.98 0 3 0 C3 1.32 3 2.64 3 4 C4.32 4 5.64 4 7 4 C7 4.99 7 5.98 7 7 C5.68 7 4.36 7 3 7 C3 11.29 3 15.58 3 20 C4.32 20 5.64 20 7 20 C7 20.99 7 21.98 7 23 C5.00045254 23.04254356 2.99958364 23.04080783 1 23 C0 22 0 22 -0.09765625 18.62109375 C-0.09098369 17.22652923 -0.07902532 15.83198257 -0.0625 14.4375 C-0.05798828 13.72658203 -0.05347656 13.01566406 -0.04882812 12.28320312 C-0.03700864 10.52209987 -0.01907263 8.76103964 0 7 C-1.32 7 -2.64 7 -4 7 C-4 6.01 -4 5.02 -4 4 C-2.68 4 -1.36 4 0 4 C0 2.68 0 1.36 0 0 Z " fill="#FAFAFA" transform="translate(89,1029)"/>
<path d="M0 0 C2.475 0.495 2.475 0.495 5 1 C7.72502965 0.62277985 7.72502965 0.62277985 10 0 C10 1.32 10 2.64 10 4 C8.35 4.66 6.7 5.32 5 6 C4.67 10.29 4.34 14.58 4 19 C2.68 19 1.36 19 0 19 C0 12.73 0 6.46 0 0 Z " fill="#E6E6E6" transform="translate(119,1033)"/>
<path d="M0 0 C1.875 1.375 1.875 1.375 3 3 C3 3.66 3 4.32 3 5 C2.01 5 1.02 5 0 5 C-0.33 4.34 -0.66 3.68 -1 3 C-2.32 3 -3.64 3 -5 3 C-5 3.99 -5 4.98 -5 6 C-2.36 6.99 0.28 7.98 3 9 C3.1875 11.875 3.1875 11.875 3 15 C-0.46923881 17.31282587 -1.92205575 17.42478586 -6 17 C-7.875 15.625 -7.875 15.625 -9 14 C-9 13.34 -9 12.68 -9 12 C-8.01 12 -7.02 12 -6 12 C-5.67 12.66 -5.34 13.32 -5 14 C-3.35 13.67 -1.7 13.34 0 13 C0 12.34 0 11.68 0 11 C-0.56589844 10.84144531 -1.13179687 10.68289063 -1.71484375 10.51953125 C-3.92756716 9.81565965 -5.94841871 9.09044132 -8 8 C-9.1875 5.5 -9.1875 5.5 -9 3 C-6.83453349 -0.6940311 -3.97364694 -0.49670587 0 0 Z " fill="#E2E2E2" transform="translate(757,1034)"/>
<path d="M0 0 C1.8125 1.25 1.8125 1.25 3 3 C3 4.32 3 5.64 3 7 C0.03 7 -2.94 7 -6 7 C-5.01 8.485 -5.01 8.485 -4 10 C-0.535 9.505 -0.535 9.505 3 9 C2.67 9.99 2.34 10.98 2 12 C-4.37426409 13.32296047 -4.37426409 13.32296047 -6.9375 12 C-8.58367385 8.90131981 -8.36841966 6.43858351 -8 3 C-5.95177941 -0.34183359 -3.7548828 -0.56323242 0 0 Z " fill="#F9F9F9" transform="translate(701,1038)"/>
<path d="M0 0 C0.99 0 1.98 0 3 0 C3.33 2.64 3.66 5.28 4 8 C5.32 6.68 6.64 5.36 8 4 C8.99 4.33 9.98 4.66 11 5 C10.01 5.33 9.02 5.66 8 6 C7.12245809 8.20438833 7.12245809 8.20438833 7 11 C8.83317376 14.29248108 8.83317376 14.29248108 11 17 C7.20411134 16.45773019 5.52788007 14.79872437 3 12 C3 13.65 3 15.3 3 17 C2.01 17 1.02 17 0 17 C0 11.39 0 5.78 0 0 Z " fill="#D6D6D6" transform="translate(796,1034)"/>
<path d="M0 0 C1 1 1 1 1.4375 3.6875 C0.80565824 8.47144475 -1.42136191 9.86869167 -5 13 C-2.69 13.33 -0.38 13.66 2 14 C2 14.66 2 15.32 2 16 C-1.96 16 -5.92 16 -10 16 C-8.95475221 11.81900884 -8.5894258 11.27154064 -5.4375 8.75 C-4.79683594 8.22921875 -4.15617188 7.7084375 -3.49609375 7.171875 C-3.00238281 6.78515625 -2.50867188 6.3984375 -2 6 C-2.33 4.68 -2.66 3.36 -3 2 C-4.97536745 2.34786708 -4.97536745 2.34786708 -7 3 C-7.33 3.66 -7.66 4.32 -8 5 C-8.66 5 -9.32 5 -10 5 C-9.625 2.5625 -9.625 2.5625 -9 0 C-5.90842747 -1.54578627 -3.31526981 -0.60277633 0 0 Z " fill="#E7E7E7" transform="translate(901,1035)"/>
<path d="M0 0 C0.99 0.33 1.98 0.66 3 1 C4.16796875 3.72265625 4.16796875 3.72265625 5.1875 7.0625 C5.53167969 8.16722656 5.87585938 9.27195312 6.23046875 10.41015625 C6.48441406 11.26480469 6.73835937 12.11945313 7 13 C7.24234375 12.14535156 7.4846875 11.29070312 7.734375 10.41015625 C8.23710938 8.75306641 8.23710938 8.75306641 8.75 7.0625 C9.07484375 5.96035156 9.3996875 4.85820313 9.734375 3.72265625 C10.15203125 2.82417969 10.5696875 1.92570312 11 1 C12.32 0.67 13.64 0.34 15 0 C13.02 5.61 11.04 11.22 9 17 C7.68 17 6.36 17 5 17 C4.16080602 14.73117913 3.32848276 12.46022973 2.5 10.1875 C2.26152344 9.54490234 2.02304687 8.90230469 1.77734375 8.24023438 C0.72931254 5.35066261 0 3.09923939 0 0 Z " fill="#E4E4E4" transform="translate(678,1034)"/>
<path d="M0 0 C3.63 0 7.26 0 11 0 C10 4 10 4 8 6 C8.66 6.391875 9.32 6.78375 10 7.1875 C12 9 12 9 12.5 11.5 C12 14 12 14 10.4375 15.875 C7.03118195 17.44714679 4.59718087 16.76094211 1 16 C0.67 14.68 0.34 13.36 0 12 C0.86625 12.495 0.86625 12.495 1.75 13 C4.19883862 14.27075898 4.19883862 14.27075898 8 14 C8 12.35 8 10.7 8 9 C6.68 8.67 5.36 8.34 4 8 C5.875 4.125 5.875 4.125 7 3 C4.69 2.67 2.38 2.34 0 2 C0 1.34 0 0.68 0 0 Z " fill="#EEEEEE" transform="translate(918,1034)"/>
<path d="M0 0 C1 1 1 1 1.4375 3.6875 C0.80565824 8.47144475 -1.42136191 9.86869167 -5 13 C-2.03 13.495 -2.03 13.495 1 14 C1 14.66 1 15.32 1 16 C-2.63 16 -6.26 16 -10 16 C-8.79987394 11.19949578 -7.35468015 10.39861126 -3.59375 7.5625 C-1.74641453 5.7513868 -1.39118346 4.52096011 -1 2 C-4.62528568 1.79859524 -6.86501708 2.14223235 -10 4 C-9.625 2.0625 -9.625 2.0625 -9 0 C-5.90842747 -1.54578627 -3.31526981 -0.60277633 0 0 Z " fill="#E7E7E7" transform="translate(888,1035)"/>
<path d="M0 0 C1.9375 1.25 1.9375 1.25 3 3 C2.72963853 5.97397616 2.14553974 6.85446026 0 9 C0 8.34 0 7.68 0 7 C-2.64 7.66 -5.28 8.32 -8 9 C-9.3260274 3.57534247 -9.3260274 3.57534247 -7.9375 1.125 C-5.14003001 -0.49933741 -3.17634515 -0.39704314 0 0 Z " fill="#D6D6D6" transform="translate(941,1034)"/>
<path d="M0 0 C0.33 1.32 0.66 2.64 1 4 C0.4225 3.649375 -0.155 3.29875 -0.75 2.9375 C-3.35801776 1.85082593 -4.39417629 2.06934867 -7 3 C-7 4.65 -7 6.3 -7 8 C-4.39417629 8.93065133 -3.35801776 9.14917407 -0.75 8.0625 C-0.1725 7.711875 0.405 7.36125 1 7 C0.67 8.32 0.34 9.64 0 11 C-6.37426409 12.32296047 -6.37426409 12.32296047 -8.9375 11 C-10.58367385 7.90131981 -10.36841966 5.43858351 -10 2 C-7.69981438 -2.32976117 -4.22839932 -0.87759231 0 0 Z " fill="#E9E9E9" transform="translate(716,1039)"/>
<path d="M0 0 C0.66 0.33 1.32 0.66 2 1 C1.154375 1.721875 0.30875 2.44375 -0.5625 3.1875 C-3.21930907 5.67228979 -3.21930907 5.67228979 -3.125 8.3125 C-1.51541799 12.15761259 0.67860487 15.54788843 3 19 C0.8125 19.4375 0.8125 19.4375 -2 19 C-4.44432707 16.48300375 -7 13.60995554 -7 10 C-7.66 9.67 -8.32 9.34 -9 9 C-6.03 6.03 -3.06 3.06 0 0 Z " fill="#EEEEEE" transform="translate(216,1033)"/>
<path d="M0 0 C0.33 1.32 0.66 2.64 1 4 C0.4225 3.649375 -0.155 3.29875 -0.75 2.9375 C-3.35801776 1.85082593 -4.39417629 2.06934867 -7 3 C-7 4.65 -7 6.3 -7 8 C-4.39417629 8.93065133 -3.35801776 9.14917407 -0.75 8.0625 C-0.1725 7.711875 0.405 7.36125 1 7 C0.67 8.32 0.34 9.64 0 11 C-6.37426409 12.32296047 -6.37426409 12.32296047 -8.9375 11 C-10.58367385 7.90131981 -10.36841966 5.43858351 -10 2 C-7.69981438 -2.32976117 -4.22839932 -0.87759231 0 0 Z " fill="#E4E4E4" transform="translate(824,1039)"/>
<path d="M0 0 C0.33 1.32 0.66 2.64 1 4 C0.4225 3.649375 -0.155 3.29875 -0.75 2.9375 C-3.35801776 1.85082593 -4.39417629 2.06934867 -7 3 C-7 4.65 -7 6.3 -7 8 C-4.39417629 8.93065133 -3.35801776 9.14917407 -0.75 8.0625 C-0.1725 7.711875 0.405 7.36125 1 7 C0.67 8.32 0.34 9.64 0 11 C-6.37426409 12.32296047 -6.37426409 12.32296047 -8.9375 11 C-10.58367385 7.90131981 -10.36841966 5.43858351 -10 2 C-7.69981438 -2.32976117 -4.22839932 -0.87759231 0 0 Z " fill="#E5E5E5" transform="translate(793,1039)"/>
<path d="M0 0 C0.99 0 1.98 0 3 0 C3 0.99 3 1.98 3 3 C3.99 3 4.98 3 6 3 C6 3.66 6 4.32 6 5 C5.01 5 4.02 5 3 5 C3 7.97 3 10.94 3 14 C3.99 14 4.98 14 6 14 C6 14.66 6 15.32 6 16 C4.33388095 16.042721 2.66617115 16.04063832 1 16 C0 15 0 15 -0.09765625 12.71484375 C-0.08025391 11.34005859 -0.08025391 11.34005859 -0.0625 9.9375 C-0.05347656 9.01839844 -0.04445313 8.09929687 -0.03515625 7.15234375 C-0.02355469 6.44207031 -0.01195312 5.73179688 0 5 C-0.66 5 -1.32 5 -2 5 C-2 4.34 -2 3.68 -2 3 C-1.34 3 -0.68 3 0 3 C0 2.01 0 1.02 0 0 Z " fill="#E5E5E5" transform="translate(763,1035)"/>
<path d="M0 0 C1.65 0.33 3.3 0.66 5 1 C5 1.66 5 2.32 5 3 C6.32 2.67 7.64 2.34 9 2 C9 2.66 9 3.32 9 4 C9.66 4 10.32 4 11 4 C11.1875 6.875 11.1875 6.875 11 10 C10.01 10.66 9.02 11.32 8 12 C8 10.35 8 8.7 8 7 C5.03 6.01 2.06 5.02 -1 4 C-0.67 2.68 -0.34 1.36 0 0 Z " fill="#171717" transform="translate(752,1036)"/>
<path d="M0 0 C0.99 0 1.98 0 3 0 C3 0.99 3 1.98 3 3 C3.99 3 4.98 3 6 3 C6 3.66 6 4.32 6 5 C5.01 5 4.02 5 3 5 C3 7.97 3 10.94 3 14 C3.99 14 4.98 14 6 14 C6 14.66 6 15.32 6 16 C4.33388095 16.042721 2.66617115 16.04063832 1 16 C0 15 0 15 -0.09765625 12.71484375 C-0.08025391 11.34005859 -0.08025391 11.34005859 -0.0625 9.9375 C-0.05347656 9.01839844 -0.04445313 8.09929687 -0.03515625 7.15234375 C-0.02355469 6.44207031 -0.01195312 5.73179688 0 5 C-0.66 5 -1.32 5 -2 5 C-2 4.34 -2 3.68 -2 3 C-1.34 3 -0.68 3 0 3 C0 2.01 0 1.02 0 0 Z " fill="#E6E6E6" transform="translate(720,1035)"/>
<path d="M0 0 C0 5.61 0 11.22 0 17 C-0.99 17 -1.98 17 -3 17 C-3 12.71 -3 8.42 -3 4 C-4.32 4.33 -5.64 4.66 -7 5 C-5.22678182 1.07358831 -4.52021524 0 0 0 Z " fill="#D0D0D0" transform="translate(876,1034)"/>
<path d="M0 0 C3.96 0 7.92 0 12 0 C11.57664615 6.49142565 9.08900201 11.33492989 6 17 C5.34 17 4.68 17 4 17 C5.54269924 12.27934033 7.07794619 7.58335908 9 3 C6.03 2.67 3.06 2.34 0 2 C0 1.34 0 0.68 0 0 Z " fill="#F3F3F3" transform="translate(945,1034)"/>
<path d="M0 0 C0.99 0 1.98 0 3 0 C4.36884358 4.51718381 3.47075246 7.58774263 2 12 C-0.97 12 -3.94 12 -7 12 C-6.030625 10.948125 -5.06125 9.89625 -4.0625 8.8125 C-1.58173738 5.94065245 -0.23631973 3.8992756 0 0 Z " fill="#1B1B1B" transform="translate(902,1037)"/>
<path d="M0 0 C5.625 -0.25 5.625 -0.25 9 2 C8.625 4.4375 8.625 4.4375 8 7 C6 8 6 8 2.875 7.0625 C1.92625 6.711875 0.9775 6.36125 0 6 C0.185625 5.38125 0.37125 4.7625 0.5625 4.125 C1.23686176 1.95839822 1.23686176 1.95839822 0 0 Z " fill="#D0D0D0" transform="translate(962,1034)"/>
<path d="M0 0 C1.32 0 2.64 0 4 0 C5.125 6.75 5.125 6.75 4 9 C-0.875 8.125 -0.875 8.125 -2 7 C-2.1875 4.5625 -2.1875 4.5625 -2 2 C-1.34 1.34 -0.68 0.68 0 0 Z " fill="#181818" transform="translate(831,1040)"/>
<path d="M0 0 C2.625 0.375 2.625 0.375 5 1 C5.125 3.875 5.125 3.875 5 7 C4.34 7.66 3.68 8.32 3 9 C-0.53571429 8.46428571 -0.53571429 8.46428571 -2 7 C-2.1875 4.5625 -2.1875 4.5625 -2 2 C-1.34 1.34 -0.68 0.68 0 0 Z " fill="#131313" transform="translate(731,1040)"/>
<path d="M0 0 C2.31 0 4.62 0 7 0 C7 0.99 7 1.98 7 3 C6.01 3.33 5.02 3.66 4 4 C3.67 6.97 3.34 9.94 3 13 C2.01 13 1.02 13 0 13 C0 8.71 0 4.42 0 0 Z " fill="#D3D3D3" transform="translate(740,1038)"/>
<path d="M0 0 C3.53571429 0.53571429 3.53571429 0.53571429 5 2 C5.1875 4.4375 5.1875 4.4375 5 7 C4.34 7.66 3.68 8.32 3 9 C-0.53571429 8.46428571 -0.53571429 8.46428571 -2 7 C-2.1875 4.5625 -2.1875 4.5625 -2 2 C-1.34 1.34 -0.68 0.68 0 0 Z " fill="#111111" transform="translate(774,1040)"/>
<path d="M0 0 C0.66 0 1.32 0 2 0 C0.94744358 5.26278209 -0.33743201 10.37487802 -1.9375 15.5 C-2.25589844 16.5209375 -2.57429687 17.541875 -2.90234375 18.59375 C-3.26457031 19.3878125 -3.62679687 20.181875 -4 21 C-4.99 21.33 -5.98 21.66 -7 22 C-5.0827282 14.49068545 -2.75950985 7.24196241 0 0 Z " fill="#DBDBDB" transform="translate(866,1033)"/>
<path d="M0 0 C2.64 0 5.28 0 8 0 C7.67 0.66 7.34 1.32 7 2 C6.01 2.33 5.02 2.66 4 3 C3.67 6.3 3.34 9.6 3 13 C2.01 13 1.02 13 0 13 C0 8.71 0 4.42 0 0 Z " fill="#D6D6D6" transform="translate(840,1038)"/>
<path d="M0 0 C3.0625 0.3125 3.0625 0.3125 4.9375 1.6875 C6.0625 3.3125 6.0625 3.3125 6.0625 5.3125 C5.0725 5.3125 4.0825 5.3125 3.0625 5.3125 C2.7325 4.6525 2.4025 3.9925 2.0625 3.3125 C0.7425 3.3125 -0.5775 3.3125 -1.9375 3.3125 C-1.9375 5.2925 -1.9375 7.2725 -1.9375 9.3125 C-3.2575 8.6525 -4.5775 7.9925 -5.9375 7.3125 C-4.86460706 0.51751139 -4.86460706 0.51751139 0 0 Z " fill="#DEDEDE" transform="translate(753.9375,1033.6875)"/>
<path d="M0 0 C3.0625 0.25 3.0625 0.25 6.0625 2.25 C5.4025 3.57 4.7425 4.89 4.0625 6.25 C2.4125 5.92 0.7625 5.59 -0.9375 5.25 C-0.9375 4.59 -0.9375 3.93 -0.9375 3.25 C-2.2575 3.58 -3.5775 3.91 -4.9375 4.25 C-4.9375 0.67595264 -3.27964858 0.27911903 0 0 Z " fill="#212121" transform="translate(751.9375,1042.75)"/>
<path d="M0 0 C1.65 0 3.3 0 5 0 C4.96744792 2.01822917 4.93489583 4.03645833 4.90234375 6.0546875 C4.87350758 8.08185404 4.87350758 8.08185404 6 10 C3.03 9.505 3.03 9.505 0 9 C0 6.03 0 3.06 0 0 Z " fill="#101010" transform="translate(723,1040)"/>
<path d="M0 0 C2.625 0.3125 2.625 0.3125 4.4375 2.3125 C4.829375 2.9725 5.22125 3.6325 5.625 4.3125 C3.21954362 5.51522819 1.67503047 5.41321472 -1 5.375 C-2.22589844 5.36146484 -2.22589844 5.36146484 -3.4765625 5.34765625 C-4.41628906 5.33025391 -4.41628906 5.33025391 -5.375 5.3125 C-2.99512693 0.39409565 -2.99512693 0.39409565 0 0 Z " fill="#8F8F8F" transform="translate(698.375,1037.6875)"/>
<path d="M0 0 C0.25 2.3125 0.25 2.3125 0 5 C-1.5625 6.875 -1.5625 6.875 -4 8 C-7.75 7.6875 -7.75 7.6875 -11 7 C-11.33 5.68 -11.66 4.36 -12 3 C-11.13375 3.495 -11.13375 3.495 -10.25 4 C-7.80116138 5.27075898 -7.80116138 5.27075898 -4 5 C-3.87625 4.360625 -3.7525 3.72125 -3.625 3.0625 C-3.41875 2.381875 -3.2125 1.70125 -3 1 C-1 0 -1 0 0 0 Z " fill="#E2E2E2" transform="translate(930,1043)"/>
<path d="M0 0 C1.65 0 3.3 0 5 0 C5 2.97 5 5.94 5 9 C3.35 9 1.7 9 0 9 C0 6.03 0 3.06 0 0 Z " fill="#0F0F0F" transform="translate(766,1040)"/>
<path d="M0 0 C2.625 0.375 2.625 0.375 5 1 C5 2.32 5 3.64 5 5 C3.35 5.33 1.7 5.66 0 6 C-0.66 4.68 -1.32 3.36 -2 2 C-1.34 1.34 -0.68 0.68 0 0 Z " fill="#1A1A1A" transform="translate(963,1043)"/>
<path d="M0 0 C2.625 0.375 2.625 0.375 5 1 C5 2.32 5 3.64 5 5 C3.35 5.33 1.7 5.66 0 6 C-0.66 4.68 -1.32 3.36 -2 2 C-1.34 1.34 -0.68 0.68 0 0 Z " fill="#181818" transform="translate(936,1043)"/>
<path d="M0 0 C2.625 0.375 2.625 0.375 5 1 C5 2.32 5 3.64 5 5 C3.35 5.33 1.7 5.66 0 6 C-0.66 4.68 -1.32 3.36 -2 2 C-1.34 1.34 -0.68 0.68 0 0 Z " fill="#181818" transform="translate(908,1043)"/>
<path d="M0 0 C4.44936709 -0.36075949 4.44936709 -0.36075949 6.8125 1.1875 C8.41501866 3.63344953 8.4409511 5.13381787 8 8 C5 10 5 10 2 10 C2 9.34 2 8.68 2 8 C2.99 7.34 3.98 6.68 5 6 C4.33131686 2.88667752 4.33131686 2.88667752 1.9375 1.8125 C1.298125 1.544375 0.65875 1.27625 0 1 C0 0.67 0 0.34 0 0 Z " fill="#E9E9E9" transform="translate(963,1041)"/>
<path d="M0 0 C0.66 0 1.32 0 2 0 C2 1.32 2 2.64 2 4 C-0.97 4.66 -3.94 5.32 -7 6 C-7.66 4.68 -8.32 3.36 -9 2 C-6.03 2 -3.06 2 0 2 C0 1.34 0 0.68 0 0 Z " fill="#171717" transform="translate(704,1043)"/>
<path d="M0 0 C0.99 0.33 1.98 0.66 3 1 C1.68 4.63 0.36 8.26 -1 12 C-1.99 12 -2.98 12 -4 12 C-3.52494322 10.18641846 -3.04483958 8.37415821 -2.5625 6.5625 C-2.29566406 5.55316406 -2.02882813 4.54382812 -1.75390625 3.50390625 C-1 1 -1 1 0 0 Z " fill="#DADADA" transform="translate(690,1034)"/>
<path d="M0 0 C0.99 0 1.98 0 3 0 C3 2.97 3 5.94 3 9 C3.99 9 4.98 9 6 9 C6 9.66 6 10.32 6 11 C4.33388095 11.042721 2.66617115 11.04063832 1 11 C0 10 0 10 -0.09765625 7.71484375 C-0.08605469 6.79832031 -0.07445312 5.88179687 -0.0625 4.9375 C-0.05347656 4.01839844 -0.04445313 3.09929687 -0.03515625 2.15234375 C-0.02355469 1.44207031 -0.01195312 0.73179688 0 0 Z " fill="#C5C5C5" transform="translate(763,1040)"/>
<path d="M0 0 C2.31 0.33 4.62 0.66 7 1 C7 1.99 7 2.98 7 4 C4.03 4 1.06 4 -2 4 C-1.34 2.68 -0.68 1.36 0 0 Z " fill="#080808" transform="translate(54,1036)"/>
<path d="M0 0 C0 0.99 0 1.98 0 3 C-2.97 2.505 -2.97 2.505 -6 2 C-6.99 3.485 -6.99 3.485 -8 5 C-8.66 5 -9.32 5 -10 5 C-9.625 2.5625 -9.625 2.5625 -9 0 C-5.93109813 -1.53445094 -3.29905734 -0.54984289 0 0 Z " fill="#DDDDDD" transform="translate(901,1035)"/>
<path d="M0 0 C0.99 0 1.98 0 3 0 C3 2.97 3 5.94 3 9 C3.99 9 4.98 9 6 9 C6 9.66 6 10.32 6 11 C4.33388095 11.042721 2.66617115 11.04063832 1 11 C0 10 0 10 -0.09765625 7.71484375 C-0.08605469 6.79832031 -0.07445312 5.88179687 -0.0625 4.9375 C-0.05347656 4.01839844 -0.04445313 3.09929687 -0.03515625 2.15234375 C-0.02355469 1.44207031 -0.01195312 0.73179688 0 0 Z " fill="#C1C1C1" transform="translate(720,1040)"/>
<path d="M0 0 C2.25076614 3.37614921 2 5.06731665 2 9 C3.65 9 5.3 9 7 9 C7 9.33 7 9.66 7 10 C1.375 10.25 1.375 10.25 -2 8 C-1.125 1.125 -1.125 1.125 0 0 Z " fill="#D6D6D6" transform="translate(906,1041)"/>
<path d="M0 0 C0.33 0 0.66 0 1 0 C1.66 2.31 2.32 4.62 3 7 C0.36 7.33 -2.28 7.66 -5 8 C-5.33 6.68 -5.66 5.36 -6 4 C-4.02 4 -2.04 4 0 4 C0 2.68 0 1.36 0 0 Z " fill="#585858" transform="translate(813,1043)"/>
<path d="M0 0 C0.99 0.33 1.98 0.66 3 1 C1.35 4.3 -0.3 7.6 -2 11 C-2.66 11 -3.32 11 -4 11 C-3.52269162 9.5410574 -3.04308958 8.08286504 -2.5625 6.625 C-2.29566406 5.81289062 -2.02882813 5.00078125 -1.75390625 4.1640625 C-1 2 -1 2 0 0 Z " fill="#E1E1E1" transform="translate(953,1040)"/>
<path d="M0 0 C1.65 0.33 3.3 0.66 5 1 C4.67 2.32 4.34 3.64 4 5 C2.35 4.67 0.7 4.34 -1 4 C-0.67 2.68 -0.34 1.36 0 0 Z " fill="#111111" transform="translate(963,1036)"/>
<path d="M0 0 C1.65 0.33 3.3 0.66 5 1 C4.67 2.32 4.34 3.64 4 5 C2.35 4.67 0.7 4.34 -1 4 C-0.67 2.68 -0.34 1.36 0 0 Z " fill="#121212" transform="translate(936,1036)"/>
<path d="M0 0 C1.65 0.33 3.3 0.66 5 1 C4.67 2.32 4.34 3.64 4 5 C2.35 4.67 0.7 4.34 -1 4 C-0.67 2.68 -0.34 1.36 0 0 Z " fill="#131313" transform="translate(908,1036)"/>
<path d="M0 0 C3.3 0.33 6.6 0.66 10 1 C10 1.66 10 2.32 10 3 C6.04 3 2.08 3 -2 3 C-1.34 2.01 -0.68 1.02 0 0 Z " fill="#F4F4F4" transform="translate(893,1048)"/>
<path d="M0 0 C-0.3125 3.375 -0.3125 3.375 -1 7 C-4.22791555 9.1519437 -5.28400809 9.20086443 -9 9 C-8.38125 8.79375 -7.7625 8.5875 -7.125 8.375 C-4.16160261 6.45750757 -3.98262803 4.29882268 -3 1 C-1 0 -1 0 0 0 Z " fill="#CACACA" transform="translate(839,1042)"/>
<path d="M0 0 C0.33 0 0.66 0 1 0 C1.268125 0.969375 1.53625 1.93875 1.8125 2.9375 C2.204375 3.948125 2.59625 4.95875 3 6 C3.99 6.33 4.98 6.66 6 7 C6 7.66 6 8.32 6 9 C1.25 8.25 1.25 8.25 -1 6 C-1.1875 3.4375 -1.1875 3.4375 -1 1 C-0.67 0.67 -0.34 0.34 0 0 Z " fill="#EDEDED" transform="translate(771,1042)"/>
<path d="M0 0 C-2.67871003 1.78580669 -3.99677943 2.3430455 -7 3 C-7.99 3.33 -8.98 3.66 -10 4 C-9.625 2.0625 -9.625 2.0625 -9 0 C-5.93109813 -1.53445094 -3.29905734 -0.54984289 0 0 Z " fill="#DFDFDF" transform="translate(888,1035)"/>
<path d="M0 0 C3.63 0 7.26 0 11 0 C11 0.99 11 1.98 11 3 C7.37 2.67 3.74 2.34 0 2 C0 1.34 0 0.68 0 0 Z " fill="#FCFCFC" transform="translate(918,1034)"/>
<path d="M0 0 C0.99 0.33 1.98 0.66 3 1 C3.042721 2.66611905 3.04063832 4.33382885 3 6 C2 7 2 7 -1.5625 7.0625 C-2.696875 7.041875 -3.83125 7.02125 -5 7 C-4.0409375 6.6596875 -4.0409375 6.6596875 -3.0625 6.3125 C-0.72806339 5.14749104 -0.72806339 5.14749104 -0.25 2.375 C-0.1675 1.59125 -0.085 0.8075 0 0 Z " fill="#ECECEC" transform="translate(913,1043)"/>
<path d="M0 0 C2.97 0.33 5.94 0.66 9 1 C9 1.66 9 2.32 9 3 C5.37 3 1.74 3 -2 3 C-1.34 2.01 -0.68 1.02 0 0 Z " fill="#FCFCFC" transform="translate(880,1048)"/>
<path d="M0 0 C0.99 0.33 1.98 0.66 3 1 C1.19873295 3.27528469 0.3633843 3.94682181 -2.5625 4.375 C-3.7690625 4.189375 -3.7690625 4.189375 -5 4 C-5.66 3.01 -6.32 2.02 -7 1 C-5.5459375 1.0309375 -5.5459375 1.0309375 -4.0625 1.0625 C-1.12534105 1.35618499 -1.12534105 1.35618499 0 0 Z " fill="#E4E4E4" transform="translate(701,1047)"/>
<path d="M0 0 C0.33 0 0.66 0 1 0 C1.3125 2.8125 1.3125 2.8125 1 6 C-1.5 7.875 -1.5 7.875 -4 9 C-3.29975694 5.73219907 -2.42301753 2.42301753 0 0 Z " fill="#BDBDBD" transform="translate(738,1042)"/>
<path d="M0 0 C5.75 0.875 5.75 0.875 8 2 C8 3.65 8 5.3 8 7 C7.236875 6.360625 6.47375 5.72125 5.6875 5.0625 C3.11753287 2.85767219 3.11753287 2.85767219 0 2 C0 1.34 0 0.68 0 0 Z " fill="#ECECEC" transform="translate(752,1041)"/>
<path d="M0 0 C0.33 0 0.66 0 1 0 C0.75 3.375 0.75 3.375 0 7 C-2.0625 8.4375 -2.0625 8.4375 -4 9 C-3.29975694 5.73219907 -2.42301753 2.42301753 0 0 Z " fill="#C7C7C7" transform="translate(781,1042)"/>
<path d="M0 0 C6.875 0.875 6.875 0.875 8 2 C8.04080783 3.99958364 8.04254356 6.00045254 8 8 C6 5 6 5 6 3 C4.02 2.34 2.04 1.68 0 1 C0 0.67 0 0.34 0 0 Z " fill="#E2E2E2" transform="translate(730,1038)"/>
<path d="M0 0 C0.99 0.495 0.99 0.495 2 1 C1.67 1.99 1.34 2.98 1 4 C1.66 4 2.32 4 3 4 C2.67 5.98 2.34 7.96 2 10 C1.34 10 0.68 10 0 10 C0 6.7 0 3.4 0 0 Z " fill="#0F0F0F" transform="translate(858,1043)"/>
<path d="M0 0 C0.33 0 0.66 0 1 0 C1.268125 0.94875 1.53625 1.8975 1.8125 2.875 C2.74986588 6.25267273 2.74986588 6.25267273 6 8 C3.625 8.125 3.625 8.125 1 8 C-1 6 -1 6 -1.1875 3.4375 C-1 1 -1 1 0 0 Z " fill="#F5F5F5" transform="translate(828,1042)"/>
<path d="M0 0 C0.99 0.33 1.98 0.66 3 1 C2.25 5.75 2.25 5.75 0 8 C-0.38063221 5.6739143 -0.71269945 3.33944736 -1 1 C-0.67 0.67 -0.34 0.34 0 0 Z " fill="#C9C9C9" transform="translate(913,1035)"/>
<path d="M0 0 C-2.8086289 2.8086289 -5.11134294 2.72711179 -9 3 C-9.99 2.34 -10.98 1.68 -12 1 C-7.9472484 0.01751476 -4.16138263 -0.08159574 0 0 Z " fill="#505050" transform="translate(709,599)"/>
<path d="M0 0 C0.66 0 1.32 0 2 0 C2.6875 2.3125 2.6875 2.3125 3 5 C1.5625 6.8125 1.5625 6.8125 0 8 C-0.38063221 5.6739143 -0.71269945 3.33944736 -1 1 C-0.67 0.67 -0.34 0.34 0 0 Z " fill="#D0D0D0" transform="translate(941,1035)"/>
<path d="M0 0 C1.98 0 3.96 0 6 0 C5.34 1.98 4.68 3.96 4 6 C3.34 6 2.68 6 2 6 C1.34 4.02 0.68 2.04 0 0 Z " fill="#161616" transform="translate(928,1041)"/>
<path d="M0 0 C1.4540625 0.0309375 1.4540625 0.0309375 2.9375 0.0625 C2.9375 0.7225 2.9375 1.3825 2.9375 2.0625 C2.15375 2.165625 1.37 2.26875 0.5625 2.375 C-2.39295181 2.83845022 -2.39295181 2.83845022 -4.0625 6.0625 C-4.105221 4.39638095 -4.10313832 2.72867115 -4.0625 1.0625 C-3.0625 0.0625 -3.0625 0.0625 0 0 Z " fill="#E2E2E2" transform="translate(910.0625,1033.9375)"/>
<path d="M0 0 C1 3 1 3 0 6 C-1.32 6 -2.64 6 -4 6 C-4 5.01 -4 4.02 -4 3 C-3.01 3 -2.02 3 -1 3 C-0.67 2.01 -0.34 1.02 0 0 Z " fill="#F2F2F2" transform="translate(687,1045)"/>
<path d="M0 0 C0.66 0 1.32 0 2 0 C1.67 1.32 1.34 2.64 1 4 C-1.31 4.33 -3.62 4.66 -6 5 C-4.05000871 4.80528889 -4.05000871 4.80528889 -2 4 C-0.71563266 2.0162233 -0.71563266 2.0162233 0 0 Z " fill="#CFCFCF" transform="translate(715,1046)"/>
</svg>
